# xmcd CD database file
#
# Track frame offsets:
#	183
#	9353
#	22055
#	38488
#	51785
#	67670
#	84928
#	98555
#	116070
#	128488
#	141485
#	160555
#	181078
#	201248
#	212823
#	230375
#
# Disc length: 3321 seconds
#
# Revision: 2
# Processed by: cddbd v1.5.2PL0 Copyright (c) Steve Scherf et al.
# Submitted via: CDex 1.81
#
DISCID=c30cf710
DTITLE=Shirley Bassey - I Am What I Am
DYEAR=1900
DGENRE=Blues
TTITLE0=Big Spender
TTITLE1=Goldfinger
TTITLE2=Kiss Me Honey Honey Kiss Me
TTITLE3=What Now My Love
TTITLE4=Something
TTITLE5=As Long As He Needs Me
TTITLE6=As I Love You
TTITLE7=Send in The Clowns
TTITLE8=I Am What I Am
TTITLE9=I (Who Have Nothing)
TTITLE10=Natalie
TTITLE11=And I Love You So
TTITLE12=Never Never Never
TTITLE13=For All We Know
TTITLE14=This Is My Life
TTITLE15=If You  Don't Understand
EXTD=
EXTT0=
EXTT1=
EXTT2=
EXTT3=
EXTT4=
EXTT5=
EXTT6=
EXTT7=
EXTT8=
EXTT9=
EXTT10=
EXTT11=
EXTT12=
EXTT13=
EXTT14=
EXTT15=
PLAYORDER=
